<svg width="38" height="38" viewBox="0 0 38 38" fill="none" xmlns="http://www.w3.org/2000/svg">
<rect width="38" height="38" rx="6" fill="#F6F8FA"/>
<path d="M12.9498 12.8857V11.2357C12.9498 10.6282 13.4423 10.1357 14.0498 10.1357H24.4998C25.1073 10.1357 25.5998 10.6282 25.5998 11.2357V15.6357M10.2007 25.665L10.2008 17.301C10.2008 16.4633 10.2005 15.27 10.2002 14.406C10.2 13.7983 10.6926 13.3063 11.3002 13.3063H16.5419L19.0765 16.0138H26.6998C27.3073 16.0138 27.7998 16.5063 27.7998 17.1138L27.7995 25.6651C27.7995 26.8801 26.8145 27.8651 25.5995 27.865L12.4007 27.865C11.1856 27.865 10.2007 26.88 10.2007 25.665Z" stroke="#0F0F0F" stroke-width="2" stroke-linecap="round" stroke-linejoin="round"/>
</svg>
