<svg width="14" height="14" viewBox="0 0 14 14" fill="none" xmlns="http://www.w3.org/2000/svg">
<path d="M6.55709 11.6102C6.67117 11.7196 6.82589 11.7811 6.98721 11.7811C7.14853 11.7811 7.30325 11.7196 7.41734 11.6102L10.8589 8.30729C10.9171 8.25343 10.9634 8.18901 10.9953 8.11778C11.0272 8.04654 11.044 7.96993 11.0447 7.8924C11.0454 7.81488 11.03 7.738 10.9994 7.66624C10.9688 7.59449 10.9236 7.5293 10.8665 7.47448C10.8094 7.41966 10.7414 7.37631 10.6667 7.34695C10.5919 7.31759 10.5118 7.30282 10.431 7.30349C10.3502 7.30417 10.2704 7.32027 10.1962 7.35087C10.1219 7.38147 10.0548 7.42595 9.9987 7.48172L7.59559 9.78796L7.59559 2.05592C7.59559 1.90107 7.53149 1.75256 7.4174 1.64307C7.30331 1.53357 7.14856 1.47206 6.98721 1.47206C6.82586 1.47206 6.67111 1.53357 6.55702 1.64307C6.44293 1.75256 6.37883 1.90107 6.37883 2.05592L6.37883 9.78796L3.97573 7.48172C3.86098 7.37536 3.70731 7.31651 3.54779 7.31784C3.38827 7.31917 3.23569 7.38058 3.12289 7.48883C3.01009 7.59708 2.9461 7.74352 2.94472 7.89661C2.94333 8.04969 3.00465 8.19718 3.11547 8.30729L6.55709 11.6102Z" fill="#EF4444"/>
</svg>
