<svg width="22" height="22" viewBox="0 0 22 22" fill="none" xmlns="http://www.w3.org/2000/svg">
<g clip-path="url(#clip0_3828_7936)">
<path d="M7.33398 11.9165V5.0415C7.33398 4.67683 7.47885 4.32709 7.73671 4.06923C7.99457 3.81137 8.34431 3.6665 8.70898 3.6665C9.07366 3.6665 9.42339 3.81137 9.68126 4.06923C9.93912 4.32709 10.084 4.67683 10.084 5.0415V10.9998" stroke="#7B7B7B" stroke-width="1.5" stroke-linecap="round" stroke-linejoin="round"/>
<path d="M10.084 5.04183V3.2085C10.084 3.02793 10.1195 2.84913 10.1886 2.68231C10.2578 2.51548 10.359 2.3639 10.4867 2.23622C10.6144 2.10854 10.766 2.00726 10.9328 1.93816C11.0996 1.86906 11.2784 1.8335 11.459 1.8335C11.6396 1.8335 11.8184 1.86906 11.9852 1.93816C12.152 2.00726 12.3036 2.10854 12.4313 2.23622C12.5589 2.3639 12.6602 2.51548 12.7293 2.68231C12.7984 2.84913 12.834 3.02793 12.834 3.2085V11.0002" stroke="#7B7B7B" stroke-width="1.5" stroke-linecap="round" stroke-linejoin="round"/>
<path d="M12.834 5.0415C12.834 4.67683 12.9788 4.32709 13.2367 4.06923C13.4946 3.81137 13.8443 3.6665 14.209 3.6665C14.5737 3.6665 14.9234 3.81137 15.1813 4.06923C15.4391 4.32709 15.584 4.67683 15.584 5.0415V10.9998" stroke="#7B7B7B" stroke-width="1.5" stroke-linecap="round" stroke-linejoin="round"/>
<path d="M15.582 6.875C15.582 6.51033 15.7269 6.16059 15.9848 5.90273C16.2426 5.64487 16.5924 5.5 16.957 5.5C17.3217 5.5 17.6714 5.64487 17.9293 5.90273C18.1872 6.16059 18.332 6.51033 18.332 6.875V14.6667C18.332 16.1254 17.7526 17.5243 16.7211 18.5558C15.6897 19.5872 14.2907 20.1667 12.832 20.1667H10.9987H11.1894C10.2785 20.1668 9.38187 19.9408 8.57997 19.5088C7.77807 19.0768 7.09601 18.4524 6.59504 17.6917C6.53491 17.6002 6.47502 17.5085 6.41537 17.4167C6.12937 16.9776 5.12562 15.2277 3.4032 12.166C3.22762 11.8539 3.18071 11.4856 3.27247 11.1395C3.36423 10.7933 3.58741 10.4966 3.89454 10.3125C4.22167 10.1162 4.60502 10.0349 4.98368 10.0814C5.36235 10.1279 5.71462 10.2996 5.98454 10.5692L7.33204 11.9167" stroke="#7B7B7B" stroke-width="1.5" stroke-linecap="round" stroke-linejoin="round"/>
</g>
<defs>
<clipPath id="clip0_3828_7936">
<rect width="22" height="22" fill="white"/>
</clipPath>
</defs>
</svg>
