<svg width="22" height="22" viewBox="0 0 22 22" fill="none" xmlns="http://www.w3.org/2000/svg">
<g clip-path="url(#clip0_3828_6710)">
<path d="M7.33398 11.917V5.04199C7.33398 4.67732 7.47885 4.32758 7.73671 4.06972C7.99457 3.81186 8.34431 3.66699 8.70898 3.66699C9.07366 3.66699 9.42339 3.81186 9.68126 4.06972C9.93912 4.32758 10.084 4.67732 10.084 5.04199V11.0003" stroke="white" stroke-width="1.5" stroke-linecap="round" stroke-linejoin="round"/>
<path d="M10.084 5.04134V3.20801C10.084 3.02744 10.1195 2.84864 10.1886 2.68182C10.2578 2.515 10.359 2.36342 10.4867 2.23574C10.6144 2.10806 10.766 2.00677 10.9328 1.93767C11.0996 1.86857 11.2784 1.83301 11.459 1.83301C11.6396 1.83301 11.8184 1.86857 11.9852 1.93767C12.152 2.00677 12.3036 2.10806 12.4313 2.23574C12.5589 2.36342 12.6602 2.515 12.7293 2.68182C12.7984 2.84864 12.834 3.02744 12.834 3.20801V10.9997" stroke="white" stroke-width="1.5" stroke-linecap="round" stroke-linejoin="round"/>
<path d="M12.834 5.04199C12.834 4.67732 12.9788 4.32758 13.2367 4.06972C13.4946 3.81186 13.8443 3.66699 14.209 3.66699C14.5737 3.66699 14.9234 3.81186 15.1813 4.06972C15.4391 4.32758 15.584 4.67732 15.584 5.04199V11.0003" stroke="white" stroke-width="1.5" stroke-linecap="round" stroke-linejoin="round"/>
<path d="M15.582 6.875C15.582 6.51033 15.7269 6.16059 15.9848 5.90273C16.2426 5.64487 16.5924 5.5 16.957 5.5C17.3217 5.5 17.6714 5.64487 17.9293 5.90273C18.1872 6.16059 18.332 6.51033 18.332 6.875V14.6667C18.332 16.1254 17.7526 17.5243 16.7211 18.5558C15.6897 19.5872 14.2907 20.1667 12.832 20.1667H10.9987H11.1894C10.2785 20.1668 9.38187 19.9408 8.57997 19.5088C7.77807 19.0768 7.09601 18.4524 6.59504 17.6917C6.53491 17.6002 6.47502 17.5085 6.41537 17.4167C6.12937 16.9776 5.12562 15.2277 3.4032 12.166C3.22762 11.8539 3.18071 11.4856 3.27247 11.1395C3.36423 10.7933 3.58741 10.4966 3.89454 10.3125C4.22167 10.1162 4.60502 10.0349 4.98368 10.0814C5.36235 10.1279 5.71462 10.2996 5.98454 10.5692L7.33204 11.9167" stroke="white" stroke-width="1.5" stroke-linecap="round" stroke-linejoin="round"/>
</g>
<defs>
<clipPath id="clip0_3828_6710">
<rect width="22" height="22" fill="white"/>
</clipPath>
</defs>
</svg>
