<svg width="21" height="22" viewBox="0 0 21 22" fill="none" xmlns="http://www.w3.org/2000/svg">
<g clip-path="url(#clip0_1458_4116)">
<path d="M20.99 11.2059C20.99 10.3045 20.9186 9.64681 20.764 8.96472H10.7092V13.0329H16.6111C16.4922 14.0439 15.8496 15.5664 14.4217 16.5895L14.4017 16.7257L17.5808 19.2467L17.8011 19.2692C19.8239 17.3569 20.99 14.5432 20.99 11.2059Z" fill="#4285F4"/>
<path d="M10.7092 21.9244C13.6007 21.9244 16.0281 20.9499 17.8011 19.2691L14.4217 16.5894C13.5174 17.2349 12.3037 17.6856 10.7092 17.6856C7.87726 17.6856 5.47367 15.7734 4.61685 13.1302L4.49126 13.1412L1.18556 15.7599L1.14233 15.8829C2.90338 19.4639 6.52071 21.9244 10.7092 21.9244Z" fill="#34A853"/>
<path d="M4.6168 13.1303C4.39072 12.4482 4.25988 11.7174 4.25988 10.9622C4.25988 10.207 4.39072 9.47621 4.60491 8.79413L4.59892 8.64886L1.2518 5.98804L1.14229 6.04136C0.416473 7.52737 0 9.19609 0 10.9622C0 12.7284 0.416473 14.397 1.14229 15.883L4.6168 13.1303Z" fill="#FBBC05"/>
<path d="M10.7092 4.23869C12.7201 4.23869 14.0766 5.12785 14.8501 5.87089L17.8724 2.85018C16.0162 1.08405 13.6007 0 10.7092 0C6.52071 0 2.90338 2.46039 1.14233 6.04135L4.60496 8.79412C5.47367 6.15102 7.87726 4.23869 10.7092 4.23869Z" fill="#EB4335"/>
</g>
<defs>
<clipPath id="clip0_1458_4116">
<rect width="21" height="22" fill="white"/>
</clipPath>
</defs>
</svg>
