<svg width="20" height="20" viewBox="0 0 20 20" fill="none" xmlns="http://www.w3.org/2000/svg">
<path d="M6.50029 13.1011L13.1003 6.5011M7.00803 7.00466L6.99506 6.99156M12.6093 12.6636L12.5964 12.6505M9.34093 2.13595L7.57689 1.15957C7.18939 0.9451 6.70871 1.11503 6.52614 1.53103L5.69503 3.42482C5.58687 3.67128 5.36577 3.84331 5.10842 3.88124L3.13097 4.17267C2.6966 4.23668 2.40349 4.66881 2.49026 5.11727L2.88526 7.15883C2.93667 7.42453 2.85476 7.69923 2.66793 7.88767L1.2324 9.33558C0.917061 9.65363 0.923489 10.1829 1.24645 10.4925L2.71669 11.9021C2.90803 12.0855 2.99659 12.3579 2.95165 12.6249L2.60635 14.6763C2.53051 15.1269 2.83402 15.5511 3.2698 15.6036L5.2537 15.8427C5.51189 15.8739 5.73709 16.04 5.85121 16.2835L6.72804 18.1547C6.92065 18.5658 7.40531 18.723 7.78747 18.4983L9.52724 17.4757C9.75366 17.3426 10.0295 17.3389 10.2591 17.466L12.0231 18.4424C12.4106 18.6569 12.8913 18.4869 13.0739 18.0709L13.905 16.1771C14.0131 15.9307 14.2342 15.7586 14.4916 15.7207L16.469 15.4293C16.9034 15.3653 17.1965 14.9331 17.1097 14.4847L16.7147 12.4431C16.6633 12.1774 16.7452 11.9027 16.9321 11.7143L18.3676 10.2664C18.6829 9.94832 18.6765 9.41905 18.3536 9.10943L16.8833 7.6999C16.692 7.51646 16.6034 7.244 16.6483 6.97704L16.9936 4.92569C17.0695 4.47509 16.766 4.05084 16.3302 3.99832L14.3463 3.75922C14.0881 3.7281 13.8629 3.56197 13.7488 3.31844L12.872 1.4472C12.6794 1.03616 12.1947 0.878986 11.8125 1.10363L10.0728 2.12628C9.84634 2.25937 9.57051 2.26302 9.34093 2.13595Z" stroke="white" stroke-width="2" stroke-linecap="round"/>
</svg>
