<svg width="14" height="14" viewBox="0 0 14 14" fill="none" xmlns="http://www.w3.org/2000/svg">
<path d="M1.6436 6.55757C1.53415 6.67166 1.47266 6.82638 1.47266 6.9877C1.47266 7.14902 1.53415 7.30374 1.6436 7.41783L4.94649 10.8594C5.00035 10.9175 5.06478 10.9639 5.13601 10.9958C5.20724 11.0277 5.28386 11.0444 5.36138 11.0451C5.43891 11.0458 5.51579 11.0305 5.58754 10.9999C5.6593 10.9693 5.72448 10.9241 5.7793 10.867C5.83412 10.8099 5.87748 10.7419 5.90683 10.6672C5.93619 10.5924 5.95097 10.5123 5.95029 10.4315C5.94962 10.3507 5.93351 10.2709 5.90291 10.1967C5.87231 10.1224 5.82783 10.0553 5.77207 9.99918L3.46583 7.59608L11.1979 7.59608C11.3527 7.59608 11.5012 7.53198 11.6107 7.41789C11.7202 7.3038 11.7817 7.14905 11.7817 6.9877C11.7817 6.82635 11.7202 6.6716 11.6107 6.55751C11.5012 6.44342 11.3527 6.37932 11.1979 6.37932L3.46583 6.37932L5.77207 3.97621C5.87842 3.86147 5.93727 3.70779 5.93594 3.54828C5.93461 3.38876 5.87321 3.23617 5.76496 3.12338C5.6567 3.01058 5.51026 2.94659 5.35718 2.94521C5.20409 2.94382 5.05661 3.00514 4.94649 3.11596L1.6436 6.55757Z" fill="#3B82F6"/>
</svg>
