<svg width="14" height="14" viewBox="0 0 14 14" fill="none" xmlns="http://www.w3.org/2000/svg">
<path d="M6.69658 1.64366C6.58249 1.53421 6.42777 1.47272 6.26645 1.47272C6.10513 1.47272 5.95041 1.53421 5.83633 1.64366L2.39472 4.94655C2.33661 5.00041 2.29026 5.06484 2.25838 5.13607C2.22649 5.2073 2.20971 5.28392 2.20901 5.36144C2.20831 5.43897 2.2237 5.51585 2.25429 5.5876C2.28488 5.65936 2.33005 5.72455 2.38718 5.77937C2.4443 5.83419 2.51222 5.87754 2.58699 5.9069C2.66176 5.93625 2.74187 5.95103 2.82265 5.95035C2.90343 5.94968 2.98326 5.93357 3.05749 5.90297C3.13171 5.87237 3.19885 5.82789 3.25497 5.77213L5.65807 3.46589V11.1979C5.65807 11.3528 5.72217 11.5013 5.83626 11.6108C5.95035 11.7203 6.1051 11.7818 6.26645 11.7818C6.4278 11.7818 6.58255 11.7203 6.69664 11.6108C6.81073 11.5013 6.87483 11.3528 6.87483 11.1979V3.46589L9.27794 5.77213C9.39268 5.87848 9.54636 5.93733 9.70587 5.936C9.86539 5.93467 10.018 5.87327 10.1308 5.76502C10.2436 5.65676 10.3076 5.51032 10.3089 5.35724C10.3103 5.20415 10.249 5.05667 10.1382 4.94655L6.69658 1.64366Z" fill="#10B981"/>
</svg>
