<svg width="17" height="10" viewBox="0 0 17 10" fill="none" xmlns="http://www.w3.org/2000/svg">
<path d="M16.5814 9.57813C16.714 9.44554 16.8193 9.2878 16.8912 9.11401C16.963 8.94021 17 8.7538 17 8.56552C17 8.37724 16.963 8.19083 16.8912 8.01703C16.8193 7.84324 16.714 7.6855 16.5814 7.55291L9.50486 0.42187C9.37329 0.288194 9.21676 0.182092 9.04429 0.109685C8.87182 0.0372787 8.68684 9.91335e-08 8.5 1.01361e-07C8.31316 1.03589e-07 8.12818 0.0372787 7.95571 0.109685C7.78324 0.182092 7.62671 0.288194 7.49514 0.42187L0.418644 7.55291C0.28599 7.6855 0.180698 7.84324 0.108845 8.01703C0.0369912 8.19083 9.98976e-08 8.37724 1.02143e-07 8.56552C1.04388e-07 8.7538 0.0369912 8.94021 0.108845 9.11401C0.180699 9.2878 0.28599 9.44554 0.418644 9.57813C0.550215 9.71181 0.706745 9.81791 0.879213 9.89031C1.05168 9.96272 1.23667 10 1.4235 10C1.61034 10 1.79533 9.96272 1.9678 9.89031C2.14026 9.81791 2.2968 9.71181 2.42837 9.57813L8.5 3.44543L14.5716 9.57813C14.7032 9.71181 14.8597 9.81791 15.0322 9.89031C15.2047 9.96272 15.3897 10 15.5765 10C15.7633 10 15.9483 9.96272 16.1208 9.89031C16.2933 9.81791 16.4498 9.71181 16.5814 9.57813Z" fill="#3D3D3D"/>
</svg>
