<svg width="7" height="11" viewBox="0 0 7 11" fill="none" xmlns="http://www.w3.org/2000/svg">
<path d="M0.29531 10.7291C0.388119 10.8149 0.498537 10.8831 0.620194 10.9296C0.741852 10.9761 0.872342 11 1.00414 11C1.13593 11 1.26642 10.9761 1.38808 10.9296C1.50973 10.8831 1.62015 10.8149 1.71296 10.7291L6.70469 6.15021C6.79826 6.06507 6.87254 5.96378 6.92322 5.85219C6.9739 5.74059 7 5.62089 7 5.5C7 5.37911 6.9739 5.25941 6.92322 5.14781C6.87254 5.03622 6.79826 4.93493 6.70469 4.84979L1.71296 0.270888C1.62015 0.185053 1.50973 0.116923 1.38807 0.0704293C1.26642 0.0239368 1.13593 5.12653e-07 1.00413 5.24175e-07C0.872341 5.35697e-07 0.741851 0.0239368 0.620193 0.0704294C0.498536 0.116923 0.388118 0.185053 0.295309 0.270888C0.201735 0.356022 0.127464 0.457307 0.0767794 0.568904C0.0260945 0.680501 -4.14858e-07 0.800198 -4.04289e-07 0.921092C-3.9372e-07 1.04199 0.0260945 1.16168 0.0767795 1.27328C0.127464 1.38488 0.201735 1.48616 0.295309 1.5713L4.5882 5.5L0.295309 9.4287C0.201736 9.51384 0.127465 9.61512 0.0767802 9.72672C0.0260953 9.83832 3.85744e-07 9.95801 3.96313e-07 10.0789C4.06882e-07 10.1998 0.0260953 10.3195 0.0767803 10.4311C0.127465 10.5427 0.201736 10.644 0.29531 10.7291Z" fill="#3D3D3D"/>
</svg>
