<svg width="22" height="22" viewBox="0 0 22 22" fill="none" xmlns="http://www.w3.org/2000/svg">
<g clip-path="url(#clip0_1463_2533)">
<path d="M7.33301 11.9166V5.04163C7.33301 4.67695 7.47787 4.32722 7.73574 4.06935C7.9936 3.81149 8.34333 3.66663 8.70801 3.66663C9.07268 3.66663 9.42242 3.81149 9.68028 4.06935C9.93814 4.32722 10.083 4.67695 10.083 5.04163V11" stroke="#3D3D3D" stroke-width="1.5" stroke-linecap="round" stroke-linejoin="round"/>
<path d="M10.083 5.04171V3.20837C10.083 3.02781 10.1186 2.84901 10.1877 2.68218C10.2568 2.51536 10.3581 2.36378 10.4857 2.2361C10.6134 2.10842 10.765 2.00714 10.9318 1.93804C11.0986 1.86894 11.2774 1.83337 11.458 1.83337C11.6386 1.83337 11.8174 1.86894 11.9842 1.93804C12.151 2.00714 12.3026 2.10842 12.4303 2.2361C12.558 2.36378 12.6592 2.51536 12.7283 2.68218C12.7974 2.84901 12.833 3.02781 12.833 3.20837V11" stroke="#3D3D3D" stroke-width="1.5" stroke-linecap="round" stroke-linejoin="round"/>
<path d="M12.833 5.04163C12.833 4.67695 12.9779 4.32722 13.2357 4.06935C13.4936 3.81149 13.8433 3.66663 14.208 3.66663C14.5727 3.66663 14.9224 3.81149 15.1803 4.06935C15.4381 4.32722 15.583 4.67695 15.583 5.04163V11" stroke="#3D3D3D" stroke-width="1.5" stroke-linecap="round" stroke-linejoin="round"/>
<path d="M15.582 6.875C15.582 6.51033 15.7269 6.16059 15.9848 5.90273C16.2426 5.64487 16.5924 5.5 16.957 5.5C17.3217 5.5 17.6714 5.64487 17.9293 5.90273C18.1872 6.16059 18.332 6.51033 18.332 6.875V14.6667C18.332 16.1254 17.7526 17.5243 16.7211 18.5558C15.6897 19.5872 14.2907 20.1667 12.832 20.1667H10.9987H11.1894C10.2785 20.1668 9.38187 19.9408 8.57997 19.5088C7.77807 19.0768 7.09601 18.4524 6.59504 17.6917C6.53491 17.6002 6.47502 17.5085 6.41537 17.4167C6.12937 16.9776 5.12562 15.2277 3.4032 12.166C3.22762 11.8539 3.18071 11.4856 3.27247 11.1395C3.36423 10.7933 3.58741 10.4966 3.89454 10.3125C4.22167 10.1162 4.60502 10.0349 4.98368 10.0814C5.36235 10.1279 5.71462 10.2996 5.98454 10.5692L7.33204 11.9167" stroke="#3D3D3D" stroke-width="1.5" stroke-linecap="round" stroke-linejoin="round"/>
</g>
<defs>
<clipPath id="clip0_1463_2533">
<rect width="22" height="22" fill="white"/>
</clipPath>
</defs>
</svg>
