<svg width="20" height="20" viewBox="0 0 20 20" fill="none" xmlns="http://www.w3.org/2000/svg">
<path d="M11.5 6.5V4.75C11.5 4.28587 11.3276 3.84075 11.0207 3.51256C10.7138 3.18437 10.2976 3 9.86364 3H4.13636C3.70237 3 3.28616 3.18437 2.97928 3.51256C2.6724 3.84075 2.5 4.28587 2.5 4.75V15.25C2.5 15.7141 2.6724 16.1592 2.97928 16.4874C3.28616 16.8156 3.70237 17 4.13636 17H9.86364C10.2976 17 10.7138 16.8156 11.0207 16.4874C11.3276 16.1592 11.5 15.7141 11.5 15.25V13.5" stroke="#0F0F0F" stroke-width="1.5" stroke-linecap="round" stroke-linejoin="round"/>
<path d="M7.5 10H17.5M17.5 10L15 8M17.5 10L15 12" stroke="#0F0F0F" stroke-width="1.5" stroke-linecap="round" stroke-linejoin="round"/>
</svg>
