<svg width="11" height="7" viewBox="0 0 11 7" fill="none" xmlns="http://www.w3.org/2000/svg">
<path d="M10.7291 6.70469C10.8149 6.61188 10.8831 6.50146 10.9296 6.37981C10.9761 6.25815 11 6.12766 11 5.99586C11 5.86407 10.9761 5.73358 10.9296 5.61192C10.8831 5.49027 10.8149 5.37985 10.7291 5.28704L6.15021 0.29531C6.06507 0.201736 5.96378 0.127465 5.85219 0.0767804C5.74059 0.0260957 5.62089 7.05385e-07 5.5 7.21238e-07C5.37911 7.37091e-07 5.25941 0.0260958 5.14781 0.0767805C5.03622 0.127465 4.93493 0.201736 4.84979 0.29531L0.270888 5.28704C0.185054 5.37985 0.116923 5.49027 0.0704296 5.61193C0.023937 5.73358 7.6898e-07 5.86407 7.86263e-07 5.99587C8.03545e-07 6.12766 0.0239371 6.25815 0.0704297 6.37981C0.116923 6.50146 0.185054 6.61188 0.270888 6.70469C0.356022 6.79827 0.457308 6.87254 0.568904 6.92322C0.680501 6.97391 0.800199 7 0.921092 7C1.04199 7 1.16168 6.97391 1.27328 6.92322C1.38488 6.87254 1.48616 6.79827 1.5713 6.70469L5.5 2.4118L9.4287 6.70469C9.51384 6.79826 9.61512 6.87254 9.72672 6.92322C9.83832 6.9739 9.95802 7 10.0789 7C10.1998 7 10.3195 6.9739 10.4311 6.92322C10.5427 6.87254 10.644 6.79826 10.7291 6.70469Z" fill="#3D3D3D"/>
</svg>
