<svg width="38" height="38" viewBox="0 0 38 38" fill="none" xmlns="http://www.w3.org/2000/svg">
<rect width="38" height="38" rx="6" fill="#F6F8FA"/>
<path d="M23.9703 13.147C23.5808 13.5386 23.5826 14.1718 23.9742 14.5612C24.3658 14.9507 24.9989 14.9489 25.3884 14.5573L24.6793 13.8522L23.9703 13.147ZM26.2186 9.8079C25.8291 9.41629 25.1959 9.41454 24.8043 9.80398C24.4127 10.1934 24.411 10.8266 24.8004 11.2182L25.5095 10.513L26.2186 9.8079ZM27.2909 13.7225C27.6804 14.1141 28.3135 14.1159 28.7051 13.7265C29.0968 13.337 29.0985 12.7039 28.7091 12.3122L28 13.0174L27.2909 13.7225ZM19.453 16.8409C19.453 16.2886 19.0053 15.8409 18.453 15.8409C17.9008 15.8409 17.453 16.2886 17.453 16.8409H18.453H19.453ZM17.453 20.2175C17.453 20.7698 17.9008 21.2175 18.453 21.2175C19.0053 21.2175 19.453 20.7698 19.453 20.2175H18.453H17.453ZM15.9669 8C15.4146 8 14.9669 8.44772 14.9669 9C14.9669 9.55228 15.4146 10 15.9669 10V9V8ZM20.9392 10C21.4915 10 21.9392 9.55228 21.9392 9C21.9392 8.44772 21.4915 8 20.9392 8V9V10ZM24.6793 13.8522L25.3884 14.5573L27.4638 12.4704L26.7547 11.7652L26.0457 11.0601L23.9703 13.147L24.6793 13.8522ZM25.5095 10.513L24.8004 11.2182L26.0457 12.4704L26.7547 11.7652L27.4638 11.0601L26.2186 9.8079L25.5095 10.513ZM26.7547 11.7652L26.0457 12.4704L27.2909 13.7225L28 13.0174L28.7091 12.3122L27.4638 11.0601L26.7547 11.7652ZM18.453 16.8409H17.453V20.2175H18.453H19.453V16.8409H18.453ZM15.9669 9V10H20.9392V9V8H15.9669V9ZM26.9061 20.4286H25.9061C25.9061 24.6233 22.5562 28 18.453 28V29V30C23.6869 30 27.9061 25.7016 27.9061 20.4286H26.9061ZM18.453 29V28C14.3499 28 11 24.6233 11 20.4286H10H9C9 25.7016 13.2192 30 18.453 30V29ZM10 20.4286H11C11 16.2338 14.3499 12.8571 18.453 12.8571V11.8571V10.8571C13.2192 10.8571 9 15.1556 9 20.4286H10ZM18.453 11.8571V12.8571C22.5562 12.8571 25.9061 16.2338 25.9061 20.4286H26.9061H27.9061C27.9061 15.1556 23.6869 10.8571 18.453 10.8571V11.8571Z" fill="#0F0F0F"/>
</svg>
