<svg width="25" height="25" viewBox="0 0 25 25" fill="none" xmlns="http://www.w3.org/2000/svg">
<path d="M16.4679 13.1986L15.9224 12.3605L15.9084 12.3696L15.8948 12.3791L16.4679 13.1986ZM16.4679 11.5858L15.875 12.3911L15.9196 12.4239L15.9676 12.4517L16.4679 11.5858ZM10.0046 6.82652L10.5975 6.02128L10.5693 6.0005L10.5397 5.98175L10.0046 6.82652ZM8.64957 7.53739L9.64957 7.53449L9.64954 7.52573L9.64936 7.51698L8.64957 7.53739ZM8.67667 16.8863L7.67668 16.8892L7.67676 16.9175L7.67844 16.9457L8.67667 16.8863ZM10.0814 17.6653L10.5656 18.5403L10.6115 18.5149L10.6545 18.4848L10.0814 17.6653ZM12.25 23.5V22.5C6.58908 22.5 2 17.9109 2 12.25H1H0C0 19.0155 5.48451 24.5 12.25 24.5V23.5ZM23.5 12.25H22.5C22.5 17.9109 17.9109 22.5 12.25 22.5V23.5V24.5C19.0155 24.5 24.5 19.0155 24.5 12.25H23.5ZM12.25 1V2C17.9109 2 22.5 6.58908 22.5 12.25H23.5H24.5C24.5 5.48451 19.0155 0 12.25 0V1ZM12.25 1V0C5.48451 0 0 5.48451 0 12.25H1H2C2 6.58908 6.58908 2 12.25 2V1ZM16.4679 13.1986L17.0135 14.0366C17.5085 13.7144 18.0878 13.1683 18.0867 12.3675C18.0856 11.5443 17.4781 11.0146 16.9683 10.72L16.4679 11.5858L15.9676 12.4517C16.0321 12.4889 16.077 12.5208 16.1066 12.545C16.1365 12.5693 16.1463 12.582 16.145 12.5803C16.1432 12.5782 16.1282 12.5584 16.1135 12.5199C16.0982 12.4797 16.0868 12.4283 16.0867 12.3703C16.0867 12.3126 16.0977 12.2648 16.1101 12.2314C16.1218 12.1995 16.1325 12.1865 16.1288 12.1915C16.1249 12.1967 16.1095 12.2159 16.0748 12.2468C16.0402 12.2775 15.9907 12.316 15.9224 12.3605L16.4679 13.1986ZM16.4679 11.5858L17.0609 10.7806L10.5975 6.02128L10.0046 6.82652L9.41163 7.63177L15.875 12.3911L16.4679 11.5858ZM10.0046 6.82652L10.5397 5.98175C10.02 5.65252 9.30874 5.47532 8.64599 5.78477C7.92801 6.12001 7.63525 6.84586 7.64978 7.55779L8.64957 7.53739L9.64936 7.51698C9.64751 7.42597 9.66564 7.41826 9.64572 7.45639C9.63555 7.47584 9.61763 7.50259 9.58916 7.53015C9.56057 7.55782 9.52721 7.58058 9.49213 7.59696C9.42058 7.63037 9.37126 7.62473 9.36887 7.62439C9.36783 7.62425 9.40395 7.6298 9.46945 7.67129L10.0046 6.82652ZM8.64957 7.53739L7.64958 7.54029L7.67668 16.8892L8.67667 16.8863L9.67667 16.8834L9.64957 7.53449L8.64957 7.53739ZM8.67667 16.8863L7.67844 16.9457C7.71445 17.5505 7.92227 18.3076 8.62845 18.6848C9.32429 19.0564 10.0609 18.8196 10.5656 18.5403L10.0814 17.6653L9.59714 16.7904C9.53539 16.8246 9.48655 16.8461 9.45059 16.8592C9.41444 16.8724 9.39608 16.8753 9.39405 16.8756C9.39243 16.8758 9.41083 16.873 9.44437 16.8779C9.47934 16.8831 9.52384 16.8956 9.57064 16.9206C9.61759 16.9457 9.65397 16.9764 9.67932 17.0047C9.70368 17.0319 9.71265 17.0509 9.71276 17.0511C9.71281 17.0512 9.71088 17.0471 9.70781 17.0379C9.70474 17.0286 9.70073 17.0148 9.6965 16.9959C9.68792 16.9575 9.67939 16.9021 9.6749 16.8268L8.67667 16.8863ZM10.0814 17.6653L10.6545 18.4848L17.0411 14.018L16.4679 13.1986L15.8948 12.3791L9.50823 16.8459L10.0814 17.6653Z" fill="#0F0F0F"/>
</svg>
