<svg width="14" height="14" viewBox="0 0 14 14" fill="none" xmlns="http://www.w3.org/2000/svg">
<path d="M5.40982 1.44018H0.615297C0.284305 1.44018 0.0159823 1.72294 0.0159823 2.07174C0.0159823 2.42054 0.284305 2.7033 0.615297 2.7033H5.40982C5.74081 2.7033 6.00913 2.42054 6.00913 2.07174C6.00913 1.72294 5.74081 1.44018 5.40982 1.44018Z" fill="white"/>
<path fill-rule="evenodd" clip-rule="evenodd" d="M2.14155 7.66315H0.615297C0.284305 7.66315 0.0159823 7.3804 0.0159823 7.03159C0.0159823 6.68279 0.284305 6.40003 0.615297 6.40003H2.14155C2.43308 5.53979 3.26973 5.02541 4.12383 5.1813C4.97793 5.3372 5.60167 6.11814 5.60167 7.03159C5.60167 7.94504 4.97793 8.72599 4.12383 8.88188C3.26973 9.03778 2.43308 8.52339 2.14155 7.66315ZM3.81165 7.64631C4.13381 7.64631 4.39498 7.37109 4.39498 7.03159C4.39498 6.69209 4.13381 6.41688 3.81165 6.41688C3.65694 6.41688 3.50856 6.48164 3.39917 6.59692C3.28977 6.7122 3.22831 6.86856 3.22831 7.03159C3.22831 7.37109 3.48948 7.64631 3.81165 7.64631Z" fill="white"/>
<path fill-rule="evenodd" clip-rule="evenodd" d="M9.98059 2.66962C9.70763 3.34908 9.08238 3.79712 8.38242 3.81485V3.7559C7.45578 3.75964 6.68107 3.01435 6.6004 2.04155C6.51973 1.06876 7.16002 0.193161 8.07323 0.0274664C8.98643 -0.138228 9.86775 0.46129 10.1005 1.4065C10.1349 1.40173 10.1699 1.40173 10.2043 1.4065H13.3607C13.6917 1.4065 13.96 1.68926 13.96 2.03806C13.96 2.38686 13.6917 2.66962 13.3607 2.66962H10.1644C10.1034 2.67763 10.0416 2.67763 9.98059 2.66962ZM8.96869 1.87551C8.95452 1.54571 8.69568 1.2866 8.38241 1.28861V1.32229C8.22192 1.32421 8.06927 1.39573 7.9604 1.52002C7.85153 1.6443 7.79607 1.81037 7.80707 1.97911C7.8457 2.30672 8.12299 2.54368 8.43515 2.51584C8.74731 2.488 8.98286 2.2053 8.96869 1.87551Z" fill="white"/>
<path d="M5.40982 11.6294H0.615297C0.275478 11.6294 0 11.9197 0 12.2778C0 12.6359 0.275478 12.9262 0.615297 12.9262H5.40982C5.74081 12.9262 6.00913 12.6434 6.00913 12.2946C6.00913 11.9458 5.74081 11.663 5.40982 11.663V11.6294Z" fill="white"/>
<path fill-rule="evenodd" clip-rule="evenodd" d="M10.3082 11.6294H13.4007V11.663C13.7317 11.663 14 11.9458 14 12.2946C14 12.6434 13.7317 12.9262 13.4007 12.9262H10.2043C9.83877 13.745 8.96913 14.1703 8.13969 13.936C7.31025 13.7016 6.75921 12.8748 6.83145 11.9731C6.90368 11.0714 7.57845 10.3536 8.43343 10.2691C9.28841 10.1846 10.0781 10.7575 10.3082 11.6294ZM8.06157 12.3673C8.15439 12.5967 8.36953 12.7443 8.60617 12.7409C8.92521 12.7363 9.18154 12.4624 9.18151 12.1262C9.18149 11.8768 9.03848 11.6521 8.81952 11.5575C8.60056 11.4629 8.34905 11.517 8.18286 11.6946C8.01668 11.8721 7.96876 12.1379 8.06157 12.3673Z" fill="white"/>
<path d="M13.4007 6.40003H7.00799C6.677 6.40003 6.40868 6.68279 6.40868 7.03159C6.40868 7.3804 6.677 7.66315 7.00799 7.66315H13.4007C13.7317 7.66315 14 7.3804 14 7.03159C14 6.68279 13.7317 6.40003 13.4007 6.40003Z" fill="white"/>
</svg>
