<svg width="22" height="22" viewBox="0 0 22 22" fill="none" xmlns="http://www.w3.org/2000/svg">
<g clip-path="url(#clip0_963_5131)">
<path d="M11 21.9891C17.0177 21.9891 22 16.9985 22 10.9946C22 4.9799 17.0069 0 10.9892 0C4.98236 0 0 4.9799 0 10.9946C0 16.9985 4.99315 21.9891 11 21.9891ZM11 20.1568C5.90982 20.1568 1.84413 16.0823 1.84413 10.9946C1.84413 5.90691 5.89903 1.83244 10.9892 1.83244C16.0795 1.83244 20.1667 5.90691 20.1667 10.9946C20.1667 16.0823 16.0903 20.1568 11 20.1568Z" fill="#3D3D3D"/>
<path d="M8.2497 17.4726H13.7389C14.0409 17.4726 14.3105 17.1923 14.3105 16.8905C14.3105 16.5779 14.0516 16.3085 13.7389 16.3085H11.582V15.2198C13.7173 14.9718 15.1625 13.3442 15.1625 11.1561V9.76559C15.1625 9.4638 14.8929 9.20506 14.5909 9.20506C14.2781 9.20506 14.0193 9.4638 14.0193 9.76559V11.1561C14.0193 12.9238 12.7683 14.1634 10.9889 14.1634C9.2095 14.1634 7.96931 12.9238 7.96931 11.1561V9.76559C7.96931 9.4638 7.6997 9.20506 7.38695 9.20506C7.085 9.20506 6.82617 9.4638 6.82617 9.76559V11.1561C6.82617 13.3442 8.27127 14.9827 10.4173 15.2198V16.3085H8.2497C7.93696 16.3085 7.66735 16.5779 7.66735 16.8905C7.66735 17.2031 7.93696 17.4726 8.2497 17.4726ZM10.9889 13.0747C12.0457 13.0747 12.7791 12.2555 12.7791 11.1561V6.53187C12.7791 5.4432 12.0457 4.63477 10.9889 4.63477C9.93209 4.63477 9.19872 5.4432 9.19872 6.53187V11.1561C9.19872 12.2555 9.93209 13.0747 10.9889 13.0747Z" fill="#3D3D3D"/>
</g>
<defs>
<clipPath id="clip0_963_5131">
<rect width="22" height="22" fill="white"/>
</clipPath>
</defs>
</svg>
