<svg width="16" height="18" viewBox="0 0 16 18" fill="none" xmlns="http://www.w3.org/2000/svg">
<path d="M11.5556 13.5C11.9259 13.5 12.2409 13.3689 12.5004 13.1067C12.76 12.8445 12.8895 12.5256 12.8889 12.15C12.8883 11.7744 12.7588 11.4558 12.5004 11.1942C12.2421 10.9326 11.9271 10.8012 11.5556 10.8C11.184 10.7988 10.8693 10.9302 10.6116 11.1942C10.3538 11.4582 10.224 11.7768 10.2222 12.15C10.2204 12.5232 10.3502 12.8421 10.6116 13.1067C10.8729 13.3713 11.1876 13.5024 11.5556 13.5ZM11.5556 16.1999C12.0148 16.1999 12.437 16.091 12.8222 15.8732C13.2074 15.6554 13.5185 15.3668 13.7556 15.0074C13.4296 14.8124 13.0815 14.6624 12.7111 14.5574C12.3407 14.4524 11.9556 14.3999 11.5556 14.3999C11.1556 14.3999 10.7704 14.4524 10.4 14.5574C10.0296 14.6624 9.68148 14.8124 9.35555 15.0074C9.59259 15.3674 9.9037 15.6563 10.2889 15.8741C10.6741 16.0919 11.0963 16.2005 11.5556 16.1999ZM7.11111 17.9999C5.05185 17.4749 3.3517 16.2785 2.01067 14.4107C0.66963 12.543 -0.0005922 10.4694 3.92619e-07 8.18997V2.69999L7.11111 0L14.2222 2.69999V7.80747C13.9407 7.68747 13.6518 7.57857 13.3556 7.48077C13.0593 7.38297 12.7556 7.31217 12.4444 7.26837V3.95999L7.11111 1.93499L1.77778 3.95999V8.18997C1.77778 8.89497 1.87052 9.59997 2.056 10.305C2.24148 11.01 2.50074 11.6814 2.83378 12.3192C3.16681 12.957 3.57037 13.5456 4.04444 14.0849C4.51852 14.6243 5.04444 15.0743 5.62222 15.4349C5.78518 15.9149 6 16.3724 6.26667 16.8074C6.53333 17.2424 6.83703 17.6324 7.17778 17.9774C7.16296 17.9774 7.152 17.9813 7.14489 17.9891C7.13778 17.9969 7.12652 18.0005 7.11111 17.9999ZM11.5556 17.9999C10.3259 17.9999 9.27792 17.561 8.41155 16.6832C7.54518 15.8054 7.1117 14.7443 7.11111 13.5C7.11052 12.2556 7.544 11.1945 8.41155 10.3167C9.27911 9.43887 10.3271 8.99997 11.5556 8.99997C12.784 8.99997 13.8323 9.43887 14.7004 10.3167C15.5686 11.1945 16.0018 12.2556 16 13.5C15.9982 14.7443 15.5647 15.8057 14.6996 16.6841C13.8344 17.5625 12.7864 18.0011 11.5556 17.9999Z" fill="#7B7B7B"/>
</svg>
