<svg width="20" height="20" viewBox="0 0 20 20" fill="none" xmlns="http://www.w3.org/2000/svg">
<path d="M3.75 16.4C4.17274 15.9265 6.15263 13.7478 6.73284 13.7478H12.8675C13.7083 13.7478 15.4246 15.5538 15.85 16.1904M18.6 9.8C18.6 14.6601 14.6601 18.6 9.8 18.6C4.93989 18.6 1 14.6601 1 9.8C1 4.93989 4.93989 1 9.8 1C14.6601 1 18.6 4.93989 18.6 9.8ZM12.9523 6.80063C12.9523 5.12174 11.535 3.75 9.80026 3.75C8.06559 3.75 6.64826 5.12174 6.64826 6.80063C6.64826 8.47951 8.06559 9.85126 9.80026 9.85126C11.5349 9.85126 12.9523 8.47951 12.9523 6.80063Z" stroke="#7B7B7B" stroke-width="2"/>
</svg>
