<svg width="20" height="20" viewBox="0 0 20 20" fill="none" xmlns="http://www.w3.org/2000/svg">
<path d="M6.50029 13.1013L13.1003 6.50134M7.00803 7.00491L6.99506 6.99181M12.6093 12.6638L12.5964 12.6507M9.34093 2.13619L7.57689 1.15982C7.18939 0.945344 6.70871 1.11527 6.52614 1.53127L5.69503 3.42506C5.58687 3.67153 5.36577 3.84356 5.10842 3.88148L3.13097 4.17291C2.6966 4.23692 2.40349 4.66905 2.49026 5.11751L2.88526 7.15908C2.93667 7.42477 2.85476 7.69948 2.66793 7.88791L1.2324 9.33582C0.917061 9.65388 0.923489 10.1831 1.24645 10.4928L2.71669 11.9023C2.90803 12.0857 2.99659 12.3582 2.95165 12.6252L2.60635 14.6765C2.53051 15.1271 2.83402 15.5514 3.2698 15.6039L5.2537 15.843C5.51189 15.8741 5.73709 16.0402 5.85121 16.2838L6.72804 18.155C6.92065 18.566 7.40531 18.7232 7.78747 18.4986L9.52724 17.4759C9.75366 17.3428 10.0295 17.3392 10.2591 17.4662L12.0231 18.4426C12.4106 18.6571 12.8913 18.4872 13.0739 18.0712L13.905 16.1774C14.0131 15.9309 14.2342 15.7589 14.4916 15.721L16.469 15.4295C16.9034 15.3655 17.1965 14.9334 17.1097 14.4849L16.7147 12.4434C16.6633 12.1777 16.7452 11.903 16.9321 11.7145L18.3676 10.2666C18.6829 9.94856 18.6765 9.41929 18.3536 9.10967L16.8833 7.70014C16.692 7.5167 16.6034 7.24425 16.6483 6.97728L16.9936 4.92594C17.0695 4.47533 16.766 4.05108 16.3302 3.99856L14.3463 3.75946C14.0881 3.72834 13.8629 3.56221 13.7488 3.31868L12.872 1.44745C12.6794 1.03641 12.1947 0.87923 11.8125 1.10387L10.0728 2.12653C9.84634 2.25962 9.57051 2.26326 9.34093 2.13619Z" stroke="#7B7B7B" stroke-width="2" stroke-linecap="round"/>
</svg>
