<svg width="38" height="38" viewBox="0 0 38 38" fill="none" xmlns="http://www.w3.org/2000/svg">
<rect width="38" height="38" rx="6" fill="#F6F8FA"/>
<path d="M27.6633 25.7715C27.6633 25.7715 26.5047 26.9095 26.2207 27.2432C25.7582 27.7367 25.2132 27.9698 24.4988 27.9698C24.4301 27.9698 24.3568 27.9698 24.2881 27.9653C22.9279 27.8784 21.6639 27.3483 20.7159 26.8958C18.1238 25.6435 15.8477 23.8657 13.9563 21.6125C12.3946 19.7341 11.3504 17.9974 10.6589 16.1327C10.233 14.9946 10.0773 14.108 10.146 13.2716C10.1918 12.7369 10.3979 12.2936 10.778 11.9142L12.3397 10.3557C12.5641 10.1455 12.8022 10.0312 13.0358 10.0312C13.3243 10.0312 13.5579 10.2049 13.7044 10.3512C13.709 10.3557 13.7136 10.3603 13.7181 10.3649C13.9975 10.6254 14.2631 10.895 14.5425 11.183C14.6845 11.3292 14.831 11.4755 14.9776 11.6263L16.2278 12.874C16.7133 13.3585 16.7133 13.8064 16.2278 14.2908C16.095 14.4233 15.9668 14.5559 15.834 14.6839C15.4493 15.0769 15.7515 14.7753 15.353 15.1318C15.3439 15.1409 15.3347 15.1455 15.3301 15.1547C14.9363 15.5477 15.0096 15.9316 15.092 16.1921C15.0966 16.2058 15.1012 16.2195 15.1057 16.2333C15.4309 17.0194 15.8889 17.7598 16.585 18.6418L16.5896 18.6464C17.8536 20.2003 19.1862 21.4115 20.6563 22.3392C20.8441 22.4581 21.0364 22.554 21.2196 22.6454C21.3845 22.7277 21.5402 22.8054 21.673 22.8877C21.6913 22.8968 21.7097 22.9105 21.728 22.9197C21.8837 22.9974 22.0302 23.0339 22.1814 23.0339C22.5615 23.0339 22.7996 22.7963 22.8775 22.7186L23.7752 21.8227C23.9309 21.6673 24.1782 21.48 24.4667 21.48C24.7506 21.48 24.9842 21.6582 25.1262 21.8136C25.1308 21.8182 25.1308 21.8182 25.1353 21.8227L27.6587 24.341C28.1305 24.8072 27.6633 25.7715 27.6633 25.7715Z" stroke="black" stroke-width="2" stroke-linecap="round" stroke-linejoin="round"/>
</svg>
