<svg width="17" height="10" viewBox="0 0 17 10" fill="none" xmlns="http://www.w3.org/2000/svg">
<path d="M0.418643 0.421871C0.285989 0.554456 0.180699 0.712196 0.108846 0.885993C0.0369934 1.05979 -3.82641e-07 1.2462 -3.74411e-07 1.43448C-3.66181e-07 1.62276 0.0369934 1.80917 0.108846 1.98297C0.180699 2.15676 0.285989 2.3145 0.418643 2.44709L7.49514 9.57813C7.62671 9.71181 7.78324 9.81791 7.95571 9.89031C8.12818 9.96272 8.31316 10 8.5 10C8.68684 10 8.87182 9.96272 9.04429 9.89031C9.21676 9.81791 9.37329 9.71181 9.50486 9.57813L16.5814 2.44709C16.714 2.3145 16.8193 2.15676 16.8912 1.98297C16.963 1.80917 17 1.62276 17 1.43448C17 1.2462 16.963 1.05979 16.8912 0.885992C16.8193 0.712196 16.714 0.554455 16.5814 0.42187C16.4498 0.288194 16.2933 0.182093 16.1208 0.109686C15.9483 0.0372794 15.7633 2.64637e-07 15.5765 2.72804e-07C15.3897 2.80971e-07 15.2047 0.0372794 15.0322 0.109686C14.8597 0.182093 14.7032 0.288194 14.5716 0.421871L8.5 6.55457L2.42837 0.421871C2.2968 0.288195 2.14026 0.182094 1.9678 0.109687C1.79533 0.03728 1.61034 8.83284e-07 1.4235 8.91451e-07C1.23667 8.99618e-07 1.05168 0.03728 0.879214 0.109687C0.706747 0.182094 0.550213 0.288195 0.418643 0.421871Z" fill="#3D3D3D"/>
</svg>
