<svg width="17" height="17" viewBox="0 0 17 17" fill="none" xmlns="http://www.w3.org/2000/svg">
<path d="M7.57379 2.10277H3.30892C1.89567 2.10277 0.75 3.2484 0.75 4.66161V13.1912C0.75 14.6044 1.89567 15.75 3.30892 15.75H11.8387C13.2519 15.75 14.3976 14.6044 14.3976 13.1912L14.3976 8.92638M5.01487 11.4852L8.11826 10.8599C8.28301 10.8267 8.43429 10.7456 8.55309 10.6267L15.5003 3.67587C15.8334 3.34262 15.8332 2.80242 15.4998 2.46945L14.0282 0.999481C13.6949 0.666642 13.155 0.666869 12.822 0.999988L5.87407 7.95154C5.7555 8.07018 5.67454 8.22114 5.64131 8.38554L5.01487 11.4852Z" stroke="white" stroke-width="1.5" stroke-linecap="round" stroke-linejoin="round"/>
</svg>
