<svg width="17" height="17" viewBox="0 0 17 17" fill="none" xmlns="http://www.w3.org/2000/svg">
<path d="M6.90982 2.94018H2.1153C1.7843 2.94018 1.51598 3.22294 1.51598 3.57174C1.51598 3.92054 1.7843 4.2033 2.1153 4.2033H6.90982C7.24081 4.2033 7.50913 3.92054 7.50913 3.57174C7.50913 3.22294 7.24081 2.94018 6.90982 2.94018Z" fill="#5240D6"/>
<path fill-rule="evenodd" clip-rule="evenodd" d="M3.64155 9.16315H2.1153C1.7843 9.16315 1.51598 8.8804 1.51598 8.53159C1.51598 8.18279 1.7843 7.90003 2.1153 7.90003H3.64155C3.93308 7.03979 4.76973 6.52541 5.62383 6.6813C6.47793 6.8372 7.10167 7.61814 7.10167 8.53159C7.10167 9.44504 6.47793 10.226 5.62383 10.3819C4.76973 10.5378 3.93308 10.0234 3.64155 9.16315ZM5.31165 9.14631C5.63381 9.14631 5.89498 8.87109 5.89498 8.53159C5.89498 8.19209 5.63381 7.91688 5.31165 7.91688C5.15694 7.91688 5.00856 7.98164 4.89917 8.09692C4.78977 8.2122 4.72831 8.36856 4.72831 8.53159C4.72831 8.87109 4.98948 9.14631 5.31165 9.14631Z" fill="#5240D6"/>
<path fill-rule="evenodd" clip-rule="evenodd" d="M11.4806 4.16962C11.2076 4.84908 10.5824 5.29712 9.88242 5.31485V5.2559C8.95578 5.25964 8.18107 4.51435 8.1004 3.54155C8.01973 2.56876 8.66002 1.69316 9.57323 1.52747C10.4864 1.36177 11.3677 1.96129 11.6005 2.9065C11.6349 2.90173 11.6699 2.90173 11.7043 2.9065H14.8607C15.1917 2.9065 15.46 3.18926 15.46 3.53806C15.46 3.88686 15.1917 4.16962 14.8607 4.16962H11.6644C11.6034 4.17763 11.5416 4.17763 11.4806 4.16962ZM10.4687 3.37551C10.4545 3.04571 10.1957 2.7866 9.88241 2.78861V2.82229C9.72192 2.82421 9.56927 2.89573 9.4604 3.02002C9.35153 3.1443 9.29607 3.31037 9.30707 3.47911C9.3457 3.80672 9.62299 4.04368 9.93515 4.01584C10.2473 3.988 10.4829 3.7053 10.4687 3.37551Z" fill="#5240D6"/>
<path d="M6.90982 13.1294H2.1153C1.77548 13.1294 1.5 13.4197 1.5 13.7778C1.5 14.1359 1.77548 14.4262 2.1153 14.4262H6.90982C7.24081 14.4262 7.50913 14.1434 7.50913 13.7946C7.50913 13.4458 7.24081 13.163 6.90982 13.163V13.1294Z" fill="#5240D6"/>
<path fill-rule="evenodd" clip-rule="evenodd" d="M11.8082 13.1294H14.9007V13.163C15.2317 13.163 15.5 13.4458 15.5 13.7946C15.5 14.1434 15.2317 14.4262 14.9007 14.4262H11.7043C11.3388 15.245 10.4691 15.6703 9.63969 15.436C8.81025 15.2016 8.25921 14.3748 8.33145 13.4731C8.40368 12.5714 9.07845 11.8536 9.93343 11.7691C10.7884 11.6846 11.5781 12.2575 11.8082 13.1294ZM9.56157 13.8673C9.65439 14.0967 9.86953 14.2443 10.1062 14.2409C10.4252 14.2363 10.6815 13.9624 10.6815 13.6262C10.6815 13.3768 10.5385 13.1521 10.3195 13.0575C10.1006 12.9629 9.84905 13.017 9.68286 13.1946C9.51668 13.3721 9.46876 13.6379 9.56157 13.8673Z" fill="#5240D6"/>
<path d="M14.9007 7.90003H8.50799C8.177 7.90003 7.90868 8.18279 7.90868 8.53159C7.90868 8.8804 8.177 9.16315 8.50799 9.16315H14.9007C15.2317 9.16315 15.5 8.8804 15.5 8.53159C15.5 8.18279 15.2317 7.90003 14.9007 7.90003Z" fill="#5240D6"/>
</svg>
